<svg id="Layer_1" data-name="Layer 1" xmlns="http://www.w3.org/2000/svg" viewBox="0 0 31.50372 30.70943"><path id="Icon_awesome-arrow-right" data-name="Icon awesome-arrow-right" d="M13.395,2.05672l1.561-1.561A1.681,1.681,0,0,1,17.33329.489L17.34.49572l13.668,13.661a1.681,1.681,0,0,1,.00671,2.37728l-.00671.00672-13.669,13.673a1.681,1.681,0,0,1-2.37728.00672l-.00672-.00672-1.56-1.557a1.689,1.689,0,0,1,.00405-2.38861l.02395-.0234,8.477-8.075H1.688A1.683,1.683,0,0,1,0,16.49173v-2.26a1.683,1.683,0,0,1,1.679-1.687H21.9l-8.477-8.072a1.677,1.677,0,0,1-.07243-2.37053Q13.37236,2.079,13.395,2.05672Z"/></svg>