<svg id="Layer_1" data-name="Layer 1" xmlns="http://www.w3.org/2000/svg" viewBox="0 0 53.15 41.765"><g id="Icon_ionic-ios-bed" data-name="Icon ionic-ios-bed"><path id="Path_17" data-name="Path 17" d="M50.564,15.19h-.047a2.592,2.592,0,0,0-2.586,2.586.263.263,0,0,1-.261.261H5.481a.263.263,0,0,1-.261-.261A2.592,2.592,0,0,0,2.634,15.19H2.586A2.592,2.592,0,0,0,0,17.776v21.4a2.592,2.592,0,0,0,2.586,2.589h.047A2.592,2.592,0,0,0,5.22,39.179v-.736a.476.476,0,0,1,.475-.475h41.76a.476.476,0,0,1,.475.475v.736a2.592,2.592,0,0,0,2.586,2.586h.047a2.592,2.592,0,0,0,2.587-2.586v-21.4A2.592,2.592,0,0,0,50.564,15.19Z"/><path id="Path_18" data-name="Path 18" d="M6.169,15.902H8.838a.476.476,0,0,0,.475-.475V13.885a1.9,1.9,0,0,1,1.9-1.9H22.776a1.9,1.9,0,0,1,1.9,1.9v1.542a.476.476,0,0,0,.475.475h2.847a.476.476,0,0,0,.475-.475V13.885a1.9,1.9,0,0,1,1.9-1.9H41.938a1.9,1.9,0,0,1,1.9,1.9h0v1.542a.476.476,0,0,0,.475.475h2.663a.952.952,0,0,0,.949-.949V3.8a3.808,3.808,0,0,0-3.8-3.8H9.016a3.808,3.808,0,0,0-3.8,3.8V14.952A.952.952,0,0,0,6.169,15.902Z"/></g></svg>