<svg id="Layer_1" data-name="Layer 1" xmlns="http://www.w3.org/2000/svg" viewBox="0 0 77.4375 88.5"><path id="Icon_awesome-calendar-alt" data-name="Icon awesome-calendar-alt" d="M0,80.20313A8.29934,8.29934,0,0,0,8.29688,88.5H69.14063a8.29934,8.29934,0,0,0,8.29687-8.29687V33.1875H0Zm55.3125-33.8783A2.07976,2.07976,0,0,1,57.38733,44.25h6.91529a2.07976,2.07976,0,0,1,2.07484,2.07483v6.91529A2.07977,2.07977,0,0,1,64.30262,55.315H57.38733a2.07976,2.07976,0,0,1-2.07483-2.07484Zm0,22.125A2.07976,2.07976,0,0,1,57.38733,66.375h6.91529a2.07976,2.07976,0,0,1,2.07484,2.07483v6.91529A2.07977,2.07977,0,0,1,64.30262,77.44H57.38733a2.07976,2.07976,0,0,1-2.07483-2.07484Zm-22.125-22.125A2.07975,2.07975,0,0,1,35.26233,44.25h6.91529a2.07976,2.07976,0,0,1,2.07484,2.07483v6.91529A2.07977,2.07977,0,0,1,42.17762,55.315H35.26233a2.07975,2.07975,0,0,1-2.07483-2.07484Zm0,22.125A2.07975,2.07975,0,0,1,35.26233,66.375h6.91529a2.07976,2.07976,0,0,1,2.07484,2.07483v6.91529A2.07977,2.07977,0,0,1,42.17762,77.44H35.26233a2.07975,2.07975,0,0,1-2.07483-2.07484Zm-22.125-22.125A2.07976,2.07976,0,0,1,13.13733,44.25h6.91284A2.07975,2.07975,0,0,1,22.125,46.32483v6.91529A2.07975,2.07975,0,0,1,20.05017,55.315H13.13733a2.07976,2.07976,0,0,1-2.07483-2.07484Zm0,22.125A2.07976,2.07976,0,0,1,13.13733,66.375h6.91284A2.07975,2.07975,0,0,1,22.125,68.44983v6.91529A2.07975,2.07975,0,0,1,20.05017,77.44H13.13733a2.07976,2.07976,0,0,1-2.07483-2.07484ZM69.14063,11.0625H60.84375V2.76563A2.773,2.773,0,0,0,58.07813,0H52.54688a2.773,2.773,0,0,0-2.76563,2.76563V11.0625h-22.125V2.76563A2.773,2.773,0,0,0,24.89063,0H19.35938a2.773,2.773,0,0,0-2.76563,2.76563V11.0625H8.29688A8.29934,8.29934,0,0,0,0,19.35938v8.29687H77.4375V19.35938A8.29934,8.29934,0,0,0,69.14063,11.0625Z"/></svg>