<svg id="Layer_1" data-name="Layer 1" xmlns="http://www.w3.org/2000/svg" viewBox="0 0 45.00004 44.99983"><g id="Icon_ionic-ios-chatboxes" data-name="Icon ionic-ios-chatboxes"><path id="Path_15" data-name="Path 15" d="M40.65,11.389H15.279a4.368,4.368,0,0,0-4.362,4.362V33.417a4.358,4.358,0,0,0,4.362,4.351H29.796a1.251,1.251,0,0,1,.87.366l7.213,6.652c.4.389,1.065.229,1.065-.332V38.661c0-.687.435-.9,1.122-.9h.114c2.4,0,4.82-1.935,4.82-4.351V15.751a4.344,4.344,0,0,0-4.326-4.362Q40.662,11.389,40.65,11.389Z"/><path id="Path_16" data-name="Path 16" d="M14.471,11.208h20.31V3.732A3.733,3.733,0,0,0,31.049,0H3.732A3.733,3.733,0,0,0,0,3.732V22.646a3.733,3.733,0,0,0,3.732,3.732h7V14.941A3.75,3.75,0,0,1,14.471,11.208Z"/></g></svg>