<svg id="Layer_1" data-name="Layer 1" xmlns="http://www.w3.org/2000/svg" viewBox="0 0 49.5 79.20105"><path id="Icon_map-restaurant" data-name="Icon map-restaurant" d="M19.8,1.53905v18.262H16.5v-18.15a1.65,1.65,0,0,0-3.3-.0021v18.1521H9.9V1.59205c0-2.124-3.3-2.051-3.3-.054v18.263H3.3V1.66805a1.651,1.651,0,0,0-3.3-.087v23.876c0,3.444,3.3,5.714,6.6,5.714v43.08c0,6.6,9.9,6.6,9.9,0v-43.078c3.3,0,6.6-2.742,6.6-5.325V1.59205C23.1-.50795,19.8-.43095,19.8,1.53905Zm14.85,5.062v41.25h3.3v26.4c0,6.6,11.55,6.6,11.55,0v-67.65C49.5-1.64895,34.65-1.64895,34.65,6.60105Z"/></svg>