<svg id="Layer_1" data-name="Layer 1" xmlns="http://www.w3.org/2000/svg" viewBox="0 0 265.02543 265.02543"><rect width="265.02543" height="265.02543" fill="#8c373e"/><path d="M74.79788,252.76621V234.04648H76.709V242.483H87.05716v-8.43653h1.898v18.71973h-1.898V244.316H76.709v8.4502Z" transform="translate(-0.12162 -0.21891)" fill="#f2d49b" stroke="#f2d49b" stroke-miterlimit="10"/><path d="M100.48489,253.15586a6.48926,6.48926,0,0,1-3.57373-.94824,6.177,6.177,0,0,1-2.27539-2.626,8.91021,8.91021,0,0,1-.793-3.84863,8.795,8.795,0,0,1,.80567-3.874,6.13547,6.13547,0,0,1,2.29492-2.59375,7.27207,7.27207,0,0,1,7.13623.01367,6.07953,6.07953,0,0,1,2.27539,2.61329,9.83435,9.83435,0,0,1-.00684,7.72168,6.06543,6.06543,0,0,1-2.28808,2.60644A6.59894,6.59894,0,0,1,100.48489,253.15586Zm0-1.833a4.04444,4.04444,0,0,0,3.48438-1.55273,6.64185,6.64185,0,0,0,1.14355-4.03711,6.5198,6.5198,0,0,0-1.15039-4.05567,4.09488,4.09488,0,0,0-3.47754-1.50781,4.44624,4.44624,0,0,0-2.59277.708,4.23051,4.23051,0,0,0-1.521,1.96289,7.76186,7.76186,0,0,0-.5,2.89258,6.50526,6.50526,0,0,0,1.16992,4.0625A4.0671,4.0671,0,0,0,100.48489,251.32285Z" transform="translate(-0.12162 -0.21891)" fill="#f2d49b" stroke="#f2d49b" stroke-miterlimit="10"/><path d="M112.28958,252.76621V233.65586h1.91113v19.11035Z" transform="translate(-0.12162 -0.21891)" fill="#f2d49b" stroke="#f2d49b" stroke-miterlimit="10"/><path d="M120.38821,236.06113V233.9166h1.91113v2.14453Zm0,16.70508v-14.04h1.91113v14.04Z" transform="translate(-0.12162 -0.21891)" fill="#f2d49b" stroke="#f2d49b" stroke-miterlimit="10"/><path d="M133.67337,253.15586a5.66528,5.66528,0,0,1-3.35352-.98145,6.27374,6.27374,0,0,1-2.13183-2.6582,10.0336,10.0336,0,0,1-.00684-7.55274,6.22906,6.22906,0,0,1,2.11231-2.65234,6.15848,6.15848,0,0,1,6.62988-.01269,5.95389,5.95389,0,0,1,2.04785,2.63183,10.72387,10.72387,0,0,1,.00684,7.5791,6.06653,6.06653,0,0,1-2.02832,2.665A5.38928,5.38928,0,0,1,133.67337,253.15586Zm.19531-1.78028a4.01307,4.01307,0,0,0,2.46973-.72851,4.32672,4.32672,0,0,0,1.456-2.00879,9.04485,9.04485,0,0,0,0-5.82324,4.27015,4.27015,0,0,0-1.44922-1.98242,3.99387,3.99387,0,0,0-2.4375-.71583,4.04227,4.04227,0,0,0-2.49609.74122,4.33912,4.33912,0,0,0-1.46191,2.01562,8.80167,8.80167,0,0,0,.01269,5.73926,4.46792,4.46792,0,0,0,1.46191,2.02148A3.92362,3.92362,0,0,0,133.86868,251.37558Zm4.40723,1.39063V242.19687h-.208v-8.15039h1.92383v18.71973Z" transform="translate(-0.12162 -0.21891)" fill="#f2d49b" stroke="#f2d49b" stroke-miterlimit="10"/><path d="M149.6763,253.15586a5.60183,5.60183,0,0,1-2.65821-.57129,3.87534,3.87534,0,0,1-1.60546-1.52149,4.14775,4.14775,0,0,1-.53321-2.0664,3.89443,3.89443,0,0,1,.46192-1.957,3.81659,3.81659,0,0,1,1.26074-1.332,6.2371,6.2371,0,0,1,1.85254-.793q1.06494-.26074,2.35937-.46192,1.29347-.20214,2.53516-.35058,1.24072-.14941,2.17676-.293l-.67578.416a4.564,4.564,0,0,0-.80567-3.08105,3.67712,3.67712,0,0,0-2.93847-1.001,4.359,4.359,0,0,0-2.4375.65039,3.48029,3.48029,0,0,0-1.39747,2.05371l-1.85839-.54589a4.96375,4.96375,0,0,1,1.93652-2.92481,6.36169,6.36169,0,0,1,3.7832-1.04,6.84766,6.84766,0,0,1,3.26953.7207,4.05606,4.05606,0,0,1,1.9043,2.08692,4.68133,4.68133,0,0,1,.33789,1.36523,14.69407,14.69407,0,0,1,.07813,1.53418v8.72266h-1.70313v-3.52344l.49414.208a5.56685,5.56685,0,0,1-2.22265,2.75684A6.65493,6.65493,0,0,1,149.6763,253.15586Zm.2207-1.65039a5.34413,5.34413,0,0,0,2.34082-.48145,4.20732,4.20732,0,0,0,1.61133-1.31933,4.45041,4.45041,0,0,0,.793-1.89161,7.10067,7.10067,0,0,0,.16894-1.48828q.01319-.813.01368-1.21582l.72753.377q-.97411.13036-2.1123.26074-1.13818.12891-2.23633.29883a19.32248,19.32248,0,0,0-1.98242.40234,5.6387,5.6387,0,0,0-1.15723.47461,2.68126,2.68126,0,0,0-.916.8125,2.13592,2.13592,0,0,0-.35742,1.26172,2.476,2.476,0,0,0,.30566,1.18261,2.37554,2.37554,0,0,0,.9873.94922A3.75353,3.75353,0,0,0,149.897,251.50547Z" transform="translate(-0.12162 -0.21891)" fill="#f2d49b" stroke="#f2d49b" stroke-miterlimit="10"/><path d="M160.82962,252.76621v-.40332l9.06152-11.85547h-8.38476v-1.78125h11.53027v.44238L163.9888,250.985h8.55469v1.78125Z" transform="translate(-0.12162 -0.21891)" fill="#f2d49b" stroke="#f2d49b" stroke-miterlimit="10"/><path d="M182.82669,253.15586a6.73083,6.73083,0,0,1-3.55567-.90918,6.16722,6.16722,0,0,1-2.333-2.56153,8.50447,8.50447,0,0,1-.832-3.874,8.97364,8.97364,0,0,1,.81933-3.97754,6.06837,6.06837,0,0,1,2.30664-2.58691,6.60567,6.60567,0,0,1,3.5166-.91016,6.37265,6.37265,0,0,1,3.54981.95508,5.91755,5.91755,0,0,1,2.22265,2.73633,10.15547,10.15547,0,0,1,.68848,4.251h-1.94922v-.67578a6.66383,6.66383,0,0,0-1.17676-4.12109,3.97462,3.97462,0,0,0-3.28222-1.39063,4.21885,4.21885,0,0,0-3.46485,1.46875,6.451,6.451,0,0,0-1.20214,4.18653,6.31033,6.31033,0,0,0,1.20214,4.11426,4.16916,4.16916,0,0,0,3.41211,1.46191,4.90106,4.90106,0,0,0,2.63282-.69531,4.78184,4.78184,0,0,0,1.77441-2.00879l1.78125.68945a6.35,6.35,0,0,1-2.4502,2.84082A6.791,6.791,0,0,1,182.82669,253.15586Zm-5.36914-6.877v-1.59863h10.72558v1.59863Z" transform="translate(-0.12162 -0.21891)" fill="#f2d49b" stroke="#f2d49b" stroke-miterlimit="10"/><rect x="24.28416" y="26.53573" width="216.49265" height="195.51615" fill="none" stroke="#f2d49b" stroke-miterlimit="10" stroke-width="7"/><line x1="195.10454" y1="70.2963" x2="93.1576" y2="172.24323" fill="#f2d49b" stroke="#f2d49b" stroke-miterlimit="10" stroke-width="5"/><path d="M179.41067,178.31894V147.7457h5.11719v12.86621h14.47949V147.7457h5.09571v30.57324h-5.09571v-12.9082H184.52786v12.9082Z" transform="translate(-0.12162 -0.21891)" fill="#f2d49b"/><path d="M95.69418,64.24416l10.7392,20.74864,5.7475,11.10446,2.02337,3.90931,1.61359-4.09549,3.06457-7.77829,4.81128,7.59317,4.12134,6.50433H64.31839L68.4631,94.161l5.53919-10.7843,3.73211,8.694,1.6767,3.90586,1.94055-3.78171,3.6579-7.12851L95.69418,64.24416m-.00769-4.36583L83.23013,84.15323l-3.6579,7.12851-5.408-12.59781-7.48022,14.5633-5.6413,10.98306H131.45l-6.0669-9.5748-6.91833-10.91861L113.95706,95.178l-5.7475-11.10446L95.68649,59.87833Z" transform="translate(-0.12162 -0.21891)" fill="#f2d49b"/><polyline points="89.493 71.685 92.312 75.422 95.936 72.243 98.571 75.422 102.059 72.433" fill="none" stroke="#f2d49b" stroke-miterlimit="10" stroke-width="2"/><rect x="56.10762" y="98.98284" width="79.83573" height="11" fill="#8c373e"/></svg>