<svg id="Layer_1" data-name="Layer 1" xmlns="http://www.w3.org/2000/svg" viewBox="0 0 35.99012 35.99145"><path id="Icon_awesome-search-location" data-name="Icon awesome-search-location" d="M35.50273,31.12073l-7.011-7.01a1.686,1.686,0,0,0-1.2-.492h-1.142a14.622,14.622,0,1,0-2.531,2.531v1.146a1.686,1.686,0,0,0,.492,1.2l7.011,7a1.681,1.681,0,0,0,2.37728.00672l.00672-.00672,1.99-1.99a1.7,1.7,0,0,0,.007-2.39Zm-20.885-6.378a10.124,10.124,0,1,1,10.125-10.123h0a10.118,10.118,0,0,1-10.113,10.123Zm0-16.872a5.191,5.191,0,0,0-5.192,5.19v.001c0,2.318,3.393,6.543,4.693,8.076a.65.65,0,0,0,1,0c1.3-1.534,4.693-5.758,4.693-8.076a5.191,5.191,0,0,0-5.191-5.191h-.003Zm0,6.75a1.688,1.688,0,1,1,1.687-1.689v.002a1.687,1.687,0,0,1-1.686,1.688h-.001Z"/></svg>