<svg id="Layer_1" data-name="Layer 1" xmlns="http://www.w3.org/2000/svg" viewBox="0 0 71.99945 66.5"><path id="Icon_awesome-wifi" data-name="Icon awesome-wifi" d="M71.42652,18.24c-19.927-24.324-50.927-24.316-70.854,0a2.908,2.908,0,0,0-.04,3.41l3.852,5.042a1.526,1.526,0,0,0,2.52.058c16.416-19.843,41.771-19.848,58.195,0a1.527,1.527,0,0,0,2.52-.056l3.848-5.044a2.91,2.91,0,0,0-.041-3.411ZM35.99952,47.5c-3.977,0-7.2,4.253-7.2,9.5s3.223,9.5,7.2,9.5,7.2-4.253,7.2-9.5S39.97652,47.5,35.99952,47.5Zm22.8-12.408c-12.967-15.13-32.649-15.114-45.6,0a2.885,2.885,0,0,0-.064,3.436l3.875,5.045a1.529,1.529,0,0,0,2.481.119c9.444-10.772,23.6-10.748,33.018,0a1.528,1.528,0,0,0,2.481-.119l3.875-5.045A2.885,2.885,0,0,0,58.79952,35.092Z"/></svg>